<svg width="12" height="16" viewBox="0 0 12 16" fill="none" xmlns="http://www.w3.org/2000/svg">
<path fill-rule="evenodd" clip-rule="evenodd" d="M8.61074 6.31294C8.61074 7.81703 7.51633 9.03634 6.1663 9.03634C4.81627 9.03634 3.72186 7.81703 3.72186 6.31294C3.72186 4.80884 4.81627 3.58953 6.1663 3.58953C7.51633 3.58953 8.61074 4.80884 8.61074 6.31294ZM7.38852 6.31294C7.38852 7.06498 6.84131 7.67464 6.1663 7.67464C5.49129 7.67464 4.94408 7.06498 4.94408 6.31294C4.94408 5.56089 5.49129 4.95123 6.1663 4.95123C6.84131 4.95123 7.38852 5.56089 7.38852 6.31294Z" fill="white"/>
<path fill-rule="evenodd" clip-rule="evenodd" d="M2.20754 10.5656C0.00759411 8.23208 -0.0778761 4.35342 2.01664 1.90241C4.11116 -0.548601 7.59251 -0.643825 9.79246 1.68972C11.9924 4.02327 12.0779 7.90192 9.98336 10.3529L6.1663 16L2.20754 10.5656ZM9.5 9L6.30555 13.9574L3.05031 9.57941C1.5 7.5 1.27276 4.7477 2.90183 2.84136C4.5309 0.935016 7.23862 0.860953 8.94969 2.67593C10.6608 4.49091 10.5 7 9.5 9Z" fill="white"/>
</svg>
