<svg width="13" height="11" viewBox="0 0 13 11" fill="none" xmlns="http://www.w3.org/2000/svg">
<path d="M10.8 0C11.3304 0 11.8391 0.210714 12.2142 0.585786C12.5893 0.960859 12.8 1.46957 12.8 2V8.4C12.8 8.93043 12.5893 9.43914 12.2142 9.81421C11.8391 10.1893 11.3304 10.4 10.8 10.4H2C1.46957 10.4 0.960859 10.1893 0.585786 9.81421C0.210714 9.43914 0 8.93043 0 8.4V2C0 1.46957 0.210714 0.960859 0.585786 0.585786C0.960859 0.210714 1.46957 0 2 0H10.8ZM12 3.1688L6.6032 6.3448C6.55218 6.37476 6.49515 6.39302 6.43621 6.39828C6.37728 6.40354 6.31792 6.39565 6.2624 6.3752L6.1968 6.3448L0.8 3.1704V8.4C0.8 8.71826 0.926428 9.02349 1.15147 9.24853C1.37652 9.47357 1.68174 9.6 2 9.6H10.8C11.1183 9.6 11.4235 9.47357 11.6485 9.24853C11.8736 9.02349 12 8.71826 12 8.4V3.1688ZM10.8 0.8H2C1.68174 0.8 1.37652 0.926428 1.15147 1.15147C0.926428 1.37652 0.8 1.68174 0.8 2V2.2416L6.4 5.536L12 2.24V2C12 1.68174 11.8736 1.37652 11.6485 1.15147C11.4235 0.926428 11.1183 0.8 10.8 0.8Z" fill="white"/>
</svg>
