<svg width="16" height="16" viewBox="0 0 16 16" fill="none" xmlns="http://www.w3.org/2000/svg">
<path d="M12.372 16C12.2163 15.9995 12.061 15.9821 11.9089 15.9479C9.01316 15.3353 6.3454 13.899 4.21268 11.8043C2.12547 9.70494 0.677879 7.03205 0.0450497 4.10899C-0.0295688 3.74468 -0.0112545 3.36688 0.0982308 3.01191C0.207716 2.65694 0.404687 2.33676 0.670195 2.08217L2.52248 0.25898C2.61708 0.167483 2.7295 0.0974166 2.85238 0.0533536C2.97525 0.00929052 3.10584 -0.00777876 3.2356 0.00325979C3.37016 0.0176147 3.5 0.0619396 3.616 0.133118C3.73201 0.204296 3.83135 0.300598 3.90706 0.415253L6.22241 3.91483C6.30924 4.05062 6.35115 4.21132 6.34198 4.37329C6.33281 4.53526 6.27304 4.68995 6.17147 4.81458L5.00916 6.23525C5.47207 7.28297 6.12764 8.2299 6.94017 9.02449C7.74744 9.84791 8.70161 10.5054 9.751 10.9613L11.1912 9.79165C11.3121 9.69389 11.4593 9.6361 11.6131 9.62595C11.767 9.6158 11.9202 9.65377 12.0525 9.73483L15.5486 12.0458C15.6686 12.119 15.7708 12.2191 15.8476 12.3385C15.9244 12.4579 15.9738 12.5935 15.9921 12.7352C16.0103 12.8768 15.997 13.0209 15.9531 13.1566C15.9092 13.2922 15.8358 13.416 15.7385 13.5185L13.9325 15.3465C13.7274 15.5552 13.4839 15.7204 13.2161 15.8326C12.9483 15.9447 12.6614 16.0016 12.372 16ZM2.85238 1.8809L1.23725 3.90062C1.08789 4.04295 1.0493 3.08605 0.98841 3.28532C0.927516 3.4846 1.19371 3.69665 1.23725 3.90062C1.82568 6.64352 3.0558 8.43126 5.00916 10.4049C7.0162 12.3756 9.37389 14.0983 12.0988 14.674C12.305 14.7181 12.353 14.7281 12.555 14.6669C12.7571 14.6057 14.9129 12.4903 15.0624 12.3385L14.4783 12.9111L14.2247 13.1566L11.461 11.3085L10.14 11.8753C10.0808 11.9232 10.011 11.9556 9.93675 11.9696C9.86249 11.9837 9.97917 12.1987 9.90712 12.1756C8.62289 11.6917 7.13163 11.1431 6.17147 10.1457C5.17835 9.19723 4.34859 7.59247 3.85744 6.29681C3.83666 6.21838 4.02914 6.13579 4.0486 6.057C4.06807 5.97821 4.10703 5.90587 4.16175 5.84694L5.00916 4.81458L2.85238 1.8809Z" fill="white"/>
</svg>
