<svg width="13" height="13" viewBox="0 0 13 13" fill="none" xmlns="http://www.w3.org/2000/svg">
<path d="M11.0529 1.88906C9.83705 0.670312 8.21786 0 6.4971 0C2.94531 0 0.0551339 2.89018 0.0551339 6.44196C0.0551339 7.57656 0.351116 8.68504 0.914062 9.66295L0 13L3.4154 12.1033C4.35558 12.617 5.41473 12.8868 6.4942 12.8868H6.4971C10.046 12.8868 13 9.99665 13 6.44487C13 4.72411 12.2687 3.10781 11.0529 1.88906ZM6.4971 11.8016C5.53371 11.8016 4.59062 11.5433 3.76942 11.0558L3.575 10.9397L1.54955 11.4708L2.08929 9.49464L1.96161 9.29152C1.42478 8.43839 1.1433 7.45469 1.1433 6.44196C1.1433 3.49085 3.54598 1.08817 6.5 1.08817C7.93058 1.08817 9.27411 1.64531 10.2839 2.65804C11.2937 3.67076 11.9147 5.01429 11.9118 6.44487C11.9118 9.39888 9.44821 11.8016 6.4971 11.8016ZM9.43371 7.79129C9.27411 7.71004 8.48192 7.32121 8.33393 7.26897C8.18594 7.21384 8.07857 7.18772 7.97121 7.35022C7.86384 7.51272 7.55625 7.87254 7.46049 7.98281C7.36763 8.09018 7.27187 8.10469 7.11228 8.02344C6.16629 7.55045 5.54531 7.17902 4.92143 6.10826C4.75603 5.82388 5.08683 5.8442 5.39442 5.22902C5.44665 5.12165 5.42054 5.02879 5.37991 4.94754C5.33929 4.86629 5.01719 4.07411 4.88371 3.75201C4.75313 3.43862 4.61964 3.48214 4.52098 3.47634C4.42812 3.47054 4.32076 3.47054 4.21339 3.47054C4.10603 3.47054 3.93192 3.51116 3.78393 3.67076C3.63594 3.83326 3.22098 4.2221 3.22098 5.01429C3.22098 5.80647 3.79844 6.57255 3.87679 6.67991C3.95804 6.78728 5.01138 8.41228 6.62768 9.11161C7.64911 9.55268 8.04955 9.5904 8.56027 9.51495C8.87076 9.46853 9.51205 9.12612 9.64554 8.74888C9.77902 8.37165 9.77902 8.04955 9.73839 7.98281C9.70067 7.91027 9.5933 7.86964 9.43371 7.79129Z" fill="white"/>
</svg>
