<svg width="12" height="12" viewBox="0 0 12 12" fill="none" xmlns="http://www.w3.org/2000/svg">
<path d="M6 0C2.86296 0 0 2.55507 0 6C0 9.13704 2.5 12 6 12C9.13704 12 11.8604 9.49721 12 6C12.1286 2.77875 9.13704 0 6 0ZM7.89398 10.8345C7.7597 10.7813 7.61187 10.7626 7.4699 10.7895C7.26122 10.8289 7.04222 10.9535 6.85118 10.8605C6.66194 10.7685 6.62379 10.4943 6.72722 10.3109C6.83066 10.1275 7.03047 10.021 7.22834 9.94935C7.09382 9.84051 6.88778 9.89103 6.74834 9.99363C6.6089 10.0961 6.50486 10.2415 6.36278 10.3403C6.2207 10.4391 6.0095 10.4783 5.88398 10.3591C5.87978 10.4574 5.76495 10.5137 5.66654 10.5133C5.56814 10.513 5.47058 10.4783 5.37314 10.4914C5.2415 10.5089 5.13422 10.6125 5.0759 10.7317C5.02118 10.8438 5.00246 10.9693 4.9865 11.0933C2.6027 10.6204 0.799824 8.51367 0.799824 5.99307C0.799824 3.12567 3.13262 0.792988 5.9999 0.792988C7.03802 0.792988 8.00511 1.09995 8.81775 1.62615C8.80202 1.70823 8.79626 1.79091 8.8103 1.87347C8.84246 2.06355 9.01455 2.24463 9.20487 2.21331L9.23967 2.07519C9.47991 2.12355 9.68462 2.31771 9.74558 2.55507C9.70953 2.57905 9.68111 2.61287 9.66369 2.65252C9.64627 2.69216 9.64058 2.73597 9.6473 2.77875C9.93938 2.83359 10.1275 3.13359 10.177 3.42663C10.2264 3.71967 10.1742 4.01943 10.1776 4.31667C10.1829 4.78407 10.3717 5.29779 10.7977 5.49015C10.9162 5.54367 11.0575 5.56503 11.1778 5.52447C11.1917 5.67903 11.2 5.83515 11.2 5.99319C11.2 8.19219 9.82706 10.0755 7.89398 10.8345Z" fill="white"/>
</svg>
